<!DOCTYPE svg PUBLIC "-//W3C//DTD SVG 1.1//EN" "http://www.w3.org/Graphics/SVG/1.1/DTD/svg11.dtd">
<svg xmlns="http://www.w3.org/2000/svg" xmlns:xlink="http://www.w3.org/1999/xlink" version="1.1" width="621px" height="283px" viewBox="-0.5 -0.5 621 283" style="background-color: rgb(255, 255, 255);"><defs/><path d="M 296 36 L 169.92 85.67" fill="none" stroke="#000000" stroke-miterlimit="10" pointer-events="none"/><path d="M 165.04 87.59 L 170.27 81.77 L 169.92 85.67 L 172.84 88.28 Z" fill="#000000" stroke="#000000" stroke-miterlimit="10" pointer-events="none"/><path d="M 324 36 L 450.08 85.67" fill="none" stroke="#000000" stroke-miterlimit="10" pointer-events="none"/><path d="M 454.96 87.59 L 447.16 88.28 L 450.08 85.67 L 449.73 81.77 Z" fill="#000000" stroke="#000000" stroke-miterlimit="10" pointer-events="none"/><ellipse cx="310" cy="22" rx="20" ry="20" fill="#ffffff" stroke="#dae8fc" stroke-width="4" stroke-dasharray="4 4" pointer-events="none"/><path d="M 136 116 L 88.5 163.5" fill="none" stroke="#000000" stroke-miterlimit="10" pointer-events="none"/><path d="M 84.79 167.21 L 87.27 159.78 L 88.5 163.5 L 92.22 164.73 Z" fill="#000000" stroke="#000000" stroke-miterlimit="10" pointer-events="none"/><path d="M 164 116 L 211.5 163.5" fill="none" stroke="#000000" stroke-miterlimit="10" pointer-events="none"/><path d="M 215.21 167.21 L 207.78 164.73 L 211.5 163.5 L 212.73 159.78 Z" fill="#000000" stroke="#000000" stroke-miterlimit="10" pointer-events="none"/><ellipse cx="150" cy="102" rx="20" ry="20" fill="#d5e8d4" stroke="#82b366" pointer-events="none"/><path d="M 456 116 L 408.5 163.5" fill="none" stroke="#000000" stroke-miterlimit="10" pointer-events="none"/><path d="M 404.79 167.21 L 407.27 159.78 L 408.5 163.5 L 412.22 164.73 Z" fill="#000000" stroke="#000000" stroke-miterlimit="10" pointer-events="none"/><path d="M 484 116 L 531.5 163.5" fill="none" stroke="#000000" stroke-miterlimit="10" pointer-events="none"/><path d="M 535.21 167.21 L 527.78 164.73 L 531.5 163.5 L 532.73 159.78 Z" fill="#000000" stroke="#000000" stroke-miterlimit="10" pointer-events="none"/><ellipse cx="470" cy="102" rx="20" ry="20" fill="#ffffff" stroke="#dae8fc" stroke-width="4" stroke-dasharray="4 4" pointer-events="none"/><path d="M 536 196 L 516.48 242.14" fill="none" stroke="#000000" stroke-miterlimit="10" pointer-events="none"/><path d="M 514.44 246.97 L 513.94 239.16 L 516.48 242.14 L 520.39 241.89 Z" fill="#000000" stroke="#000000" stroke-miterlimit="10" pointer-events="none"/><path d="M 564 196 L 583.52 242.14" fill="none" stroke="#000000" stroke-miterlimit="10" pointer-events="none"/><path d="M 585.56 246.97 L 579.61 241.89 L 583.52 242.14 L 586.06 239.16 Z" fill="#000000" stroke="#000000" stroke-miterlimit="10" pointer-events="none"/><ellipse cx="550" cy="182" rx="20" ry="20" fill="#d5e8d4" stroke="#82b366" pointer-events="none"/><ellipse cx="500" cy="262" rx="20" ry="20" fill="#ffffff" stroke="#000000" pointer-events="none"/><ellipse cx="600" cy="262" rx="20" ry="20" fill="#ffffff" stroke="#000000" pointer-events="none"/><path d="M 376 196 L 356.48 242.14" fill="none" stroke="#000000" stroke-miterlimit="10" pointer-events="none"/><path d="M 354.44 246.97 L 353.94 239.16 L 356.48 242.14 L 360.39 241.89 Z" fill="#000000" stroke="#000000" stroke-miterlimit="10" pointer-events="none"/><path d="M 404 196 L 423.52 242.14" fill="none" stroke="#000000" stroke-miterlimit="10" pointer-events="none"/><path d="M 425.56 246.97 L 419.61 241.89 L 423.52 242.14 L 426.06 239.16 Z" fill="#000000" stroke="#000000" stroke-miterlimit="10" pointer-events="none"/><ellipse cx="390" cy="182" rx="20" ry="20" fill="#ffffff" stroke="#dae8fc" stroke-width="4" stroke-dasharray="4 4" pointer-events="none"/><ellipse cx="340" cy="262" rx="20" ry="20" fill="#d5e8d4" stroke="#82b366" pointer-events="none"/><ellipse cx="440" cy="262" rx="20" ry="20" fill="#dae8fc" stroke="#6c8ebf" pointer-events="none"/><path d="M 216 196 L 196.48 242.14" fill="none" stroke="#000000" stroke-miterlimit="10" pointer-events="none"/><path d="M 194.44 246.97 L 193.94 239.16 L 196.48 242.14 L 200.39 241.89 Z" fill="#000000" stroke="#000000" stroke-miterlimit="10" pointer-events="none"/><path d="M 244 196 L 263.52 242.14" fill="none" stroke="#000000" stroke-miterlimit="10" pointer-events="none"/><path d="M 265.56 246.97 L 259.61 241.89 L 263.52 242.14 L 266.06 239.16 Z" fill="#000000" stroke="#000000" stroke-miterlimit="10" pointer-events="none"/><ellipse cx="230" cy="182" rx="20" ry="20" fill="#ffffff" stroke="#000000" pointer-events="none"/><ellipse cx="180" cy="262" rx="20" ry="20" fill="#ffffff" stroke="#000000" pointer-events="none"/><ellipse cx="280" cy="262" rx="20" ry="20" fill="#ffffff" stroke="#000000" pointer-events="none"/><path d="M 56 196 L 36.48 242.14" fill="none" stroke="#000000" stroke-miterlimit="10" pointer-events="none"/><path d="M 34.44 246.97 L 33.94 239.16 L 36.48 242.14 L 40.39 241.89 Z" fill="#000000" stroke="#000000" stroke-miterlimit="10" pointer-events="none"/><path d="M 84 196 L 103.52 242.14" fill="none" stroke="#000000" stroke-miterlimit="10" pointer-events="none"/><path d="M 105.56 246.97 L 99.61 241.89 L 103.52 242.14 L 106.06 239.16 Z" fill="#000000" stroke="#000000" stroke-miterlimit="10" pointer-events="none"/><ellipse cx="70" cy="182" rx="20" ry="20" fill="#ffffff" stroke="#000000" pointer-events="none"/><ellipse cx="20" cy="262" rx="20" ry="20" fill="#ffffff" stroke="#000000" pointer-events="none"/><ellipse cx="120" cy="262" rx="20" ry="20" fill="#ffffff" stroke="#000000" pointer-events="none"/></svg>